<svg width="46" height="24" viewBox="0 0 46 24" fill="none" xmlns="http://www.w3.org/2000/svg">
<path d="M11.1053 0.327576V11.4329H5.55267C2.49637 11.4329 0 8.95988 0 5.88025C0 2.82394 2.49637 0.327576 5.55267 0.327576H11.1053ZM11.1053 11.9929V23.0982H5.55267C2.49637 23.0982 0 20.6018 0 17.5455C0 14.4659 2.49637 11.9929 5.55267 11.9929H11.1053ZM11.6653 0.327576V11.9929C11.6653 18.1262 16.6373 23.0982 22.7706 23.0982V11.4329C22.7706 5.29961 17.7986 0.327576 11.6653 0.327576Z" fill="white"/>
<path d="M34.8947 0.327576V11.4329H40.4473C43.5036 11.4329 46 8.95988 46 5.88025C46 2.82394 43.5036 0.327576 40.4473 0.327576H34.8947ZM34.8947 11.9929V23.0982H40.4473C43.5036 23.0982 46 20.6018 46 17.5455C46 14.4659 43.5036 11.9929 40.4473 11.9929H34.8947ZM34.3347 0.327576V11.9929C34.3347 18.1262 29.3627 23.0982 23.2294 23.0982V11.4329C23.2294 5.29961 28.2014 0.327576 34.3347 0.327576Z" fill="white"/>
</svg>
